<?xml version="1.0" standalone="no"?><!DOCTYPE svg PUBLIC "-//W3C//DTD SVG 1.1//EN" "http://www.w3.org/Graphics/SVG/1.1/DTD/svg11.dtd"><svg t="1618129467320" class="icon" viewBox="0 0 1597 1024" version="1.1" xmlns="http://www.w3.org/2000/svg" p-id="11489" xmlns:xlink="http://www.w3.org/1999/xlink" width="311.9140625" height="200"><defs><style type="text/css"></style></defs><path d="M1595.392 623.616c0 107.52-67.584 199.68-161.792 236.544-28.672 11.264-59.392 17.408-92.16 17.408H261.12c-78.848 0-148.48-35.84-195.584-91.136C28.672 742.4 6.144 686.08 6.144 623.616c0-23.552 3.072-46.08 9.216-67.584C45.056 448.512 143.36 369.664 260.096 369.664h1.024c33.792-141.312 160.768-245.76 312.32-245.76 63.488 0 122.88 18.432 173.056 50.176C808.96 74.752 919.552 8.192 1045.504 8.192c195.584 0 353.28 158.72 353.28 353.28v15.36c90.112 21.504 161.792 91.136 185.344 179.2 8.192 21.504 11.264 44.032 11.264 67.584z" fill="#C5DCFA" p-id="11490"></path><path d="M1586.176 555.008c-21.504 77.824-78.848 140.288-152.576 168.96-28.672 11.264-59.392 17.408-92.16 17.408H261.12c-78.848 0-148.48-35.84-195.584-91.136-22.528-27.648-39.936-59.392-50.176-95.232C45.056 447.488 143.36 368.64 260.096 368.64h1.024C294.912 227.328 421.888 122.88 573.44 122.88c63.488 0 122.88 18.432 173.056 50.176C808.96 73.728 919.552 7.168 1045.504 7.168c195.584 0 353.28 158.72 353.28 353.28v15.36c91.136 21.504 162.816 91.136 187.392 179.2z" fill="#DFECFD" p-id="11491"></path><path d="M1044.48 573.44v402.432c0 22.528-18.432 41.984-41.984 41.984H617.472c-22.528 0-41.984-18.432-41.984-41.984V456.704c0-22.528 18.432-41.984 41.984-41.984h285.696l2.048 2.048 126.976 126.976c8.192 8.192 12.288 18.432 12.288 29.696z" fill="#4988FD" p-id="11492"></path><path d="M922.624 785.408H692.224c-8.192 0-15.36-7.168-15.36-15.36s7.168-15.36 15.36-15.36h230.4c8.192 0 15.36 7.168 15.36 15.36s-6.144 15.36-15.36 15.36zM922.624 699.392H692.224c-8.192 0-15.36-7.168-15.36-15.36s7.168-15.36 15.36-15.36h230.4c8.192 0 15.36 7.168 15.36 15.36s-6.144 15.36-15.36 15.36zM791.552 873.472h-98.304c-8.192 0-15.36-7.168-15.36-15.36s7.168-15.36 15.36-15.36h98.304c8.192 0 15.36 7.168 15.36 15.36s-7.168 15.36-15.36 15.36z" fill="#DFECFD" p-id="11493"></path><path d="M1044.48 556.032v11.264h-94.208c-24.576 0-45.056-20.48-45.056-45.056V416.768L1044.48 556.032z" fill="#2767F4" p-id="11494"></path></svg>