<?xml version="1.0" standalone="no"?><!DOCTYPE svg PUBLIC "-//W3C//DTD SVG 1.1//EN" "http://www.w3.org/Graphics/SVG/1.1/DTD/svg11.dtd"><svg t="1618138446067" class="icon" viewBox="0 0 1389 1024" version="1.1" xmlns="http://www.w3.org/2000/svg" p-id="10657" xmlns:xlink="http://www.w3.org/1999/xlink" width="271.2890625" height="200"><defs><style type="text/css"></style></defs><path d="M1362.285714 700.416c12.580571 25.014857 18.870857 50.029714 18.870857 81.334857 0 118.784-100.425143 218.843429-219.721142 218.843429H219.721143C100.498286 1000.594286 0 900.534857 0 781.750857c0-31.305143 6.290286-56.32 12.580571-87.552v-18.797714l150.674286-531.529143C188.342857 62.537143 269.897143 0 345.234286 0h690.541714c75.337143 0 156.964571 62.537143 175.762286 150.089143l150.674285 531.529143v18.797714z m-200.850285 237.641143a155.062857 155.062857 0 0 0 156.964571-156.306286c0-12.507429-6.290286-18.797714-6.290286-31.305143-12.580571-75.044571-75.337143-125.074286-150.674285-125.074285H219.721143c-75.337143 0-138.093714 50.029714-150.674286 118.857142v6.217143c-6.290286 12.507429-6.290286 18.797714-6.290286 31.305143a155.062857 155.062857 0 0 0 156.964572 156.306286H1161.508571zM533.650286 750.445714c18.797714 0 31.378286 12.507429 31.378285 31.305143 0 18.724571-12.580571 31.232-31.451428 31.232h-313.782857c-18.870857 0-31.451429-12.507429-31.451429-31.232 0-18.797714 12.580571-31.305143 31.451429-31.305143h313.782857zM226.011429 162.596571l-119.222858 431.542858c31.305143-18.797714 68.973714-31.305143 112.932572-31.305143H1161.508571c43.885714 0 81.627429 12.507429 113.005715 37.522285l-119.296-437.76c-18.870857-56.32-69.046857-100.059429-119.222857-100.059428H345.234286c-50.249143 0-106.788571 43.739429-119.296 100.059428z m872.594285 525.312c50.249143 0 94.208 43.739429 94.208 93.842286 0 50.029714-43.885714 93.769143-94.134857 93.769143-50.249143 0-94.208-43.739429-94.208-93.769143 0-50.102857 43.885714-93.842286 94.208-93.842286z m0 125.074286c18.870857 0 31.451429-12.507429 31.451429-31.232 0-18.797714-12.580571-31.305143-31.451429-31.305143-18.797714 0-31.378286 12.507429-31.378285 31.305143 0 18.724571 12.580571 31.232 31.451428 31.232zM609.060571 444.050286c-75.337143 0-138.166857-43.812571-138.166857-112.64 0-68.754286 62.829714-118.784 138.166857-118.784h25.088c18.797714-37.522286 56.466286-56.32 100.425143-56.32 56.539429 0 113.005714 43.812571 113.005715 100.132571 37.668571 12.434286 62.829714 49.956571 62.829714 87.552 0 56.246857-50.249143 100.059429-113.005714 100.059429h-25.161143c-18.797714 0-31.378286-12.507429-31.378286-31.305143s12.580571-31.232 31.451429-31.232h25.088c25.088 0 50.176-18.797714 50.176-37.522286 0-18.797714-12.507429-31.305143-37.668572-37.595428-18.797714-6.217143-31.378286-25.014857-25.088-43.739429v-6.217143c0-18.797714-18.870857-37.595429-50.249143-37.595428-25.088 0-50.176 12.580571-50.176 31.305142-6.290286 18.797714-25.161143 31.232-43.958857 25.014858-12.580571-6.217143-18.870857-6.217143-31.451428-6.217143-43.885714 0-75.337143 25.014857-75.337143 56.246857 0 31.305143 31.451429 56.32 75.337143 56.32h18.870857c18.870857 0 31.451429 12.434286 31.451428 31.232s-12.580571 31.305143-31.451428 31.305143h-18.797715z" fill="#486FDB" p-id="10658"></path></svg>