<?xml version="1.0" standalone="no"?><!DOCTYPE svg PUBLIC "-//W3C//DTD SVG 1.1//EN" "http://www.w3.org/Graphics/SVG/1.1/DTD/svg11.dtd"><svg t="1618138390575" class="icon" viewBox="0 0 1024 1024" version="1.1" xmlns="http://www.w3.org/2000/svg" p-id="9890" xmlns:xlink="http://www.w3.org/1999/xlink" width="200" height="200"><defs><style type="text/css"></style></defs><path d="M996 232v-4l-344.8 4H28v697.6c0 52 88 93.6 196.8 93.6h544.8c125.6 0 227.2-48.8 227.2-108V232.8c-0.8 0-0.8-0.8-0.8-0.8z" fill="#C4C8CA" p-id="9891"></path><path d="M156 264h-128v665.6c0 40 53.6 74.4 128 88V264z m840-24h-128v772.8c76-17.6 128-54.4 128-97.6V240z" fill="#D0D3D5" p-id="9892"></path><path d="M768.8 808H224c-108.8 0-196.8-42.4-196.8-93.6V537.6v392.8c0 52 88 93.6 196.8 93.6h544.8c125.6 0 227.2-48.8 227.2-108V512.8v187.2c0 59.2-101.6 108-227.2 108z m227.2-348c0 60-106.4 108-236.8 108H216C112 568 28 526.4 28 474.4V424v266.4c0 52 88 93.6 196.8 93.6h544.8c125.6 0 227.2-48.8 227.2-108V424c-0.8 12.8-0.8 24.8-0.8 36zM216 544h543.2c131.2 0 236.8-48 236.8-108V232H28v218.4C28 502.4 112 544 216 544z" fill="#DADFE1" p-id="9893"></path><path d="M564 472c13.6 0 24-10.4 24-24s-10.4-24-24-24-24 10.4-24 24 10.4 24 24 24z m0 192c-13.6 0-24 10.4-24 24s10.4 24 24 24 24-10.4 24-24-10.4-24-24-24z m0 240c-13.6 0-24 10.4-24 24s10.4 24 24 24 24-10.4 24-24c0-12.8-10.4-24-24-24z" fill="#9BCDC6" p-id="9894"></path><path d="M644 424c-13.6 0-24 10.4-24 24s10.4 24 24 24 24-10.4 24-24-10.4-24-24-24z m80 48c13.6 0 24-10.4 24-24s-10.4-24-24-24-24 10.4-24 24 10.4 24 24 24z m-80 192c-13.6 0-24 10.4-24 24s10.4 24 24 24 24-10.4 24-24-10.4-24-24-24z m80 0c-13.6 0-24 10.4-24 24s10.4 24 24 24 24-10.4 24-24-10.4-24-24-24z m-80 240c-13.6 0-24 10.4-24 24s10.4 24 24 24 24-10.4 24-24c0-12.8-10.4-24-24-24z m80 0c-13.6 0-24 10.4-24 24s10.4 24 24 24 24-10.4 24-24c0-12.8-10.4-24-24-24z" fill="#3DB39E" p-id="9895"></path><path d="M436 392h-208c-4.8 0-8 3.2-8 8v24c0 4.8 3.2 8 8 8h208c4.8 0 8-3.2 8-8v-24c0-4-3.2-8-8-8z m0 64h-208c-4.8 0-8 3.2-8 8v24c0 4.8 3.2 8 8 8h208c4.8 0 8-3.2 8-8v-24c0-4-3.2-8-8-8z m0 176h-208c-4.8 0-8 3.2-8 8v24c0 4.8 3.2 8 8 8h208c4.8 0 8-3.2 8-8v-24c0-4-3.2-8-8-8z m0 64h-208c-4.8 0-8 3.2-8 8v24c0 4.8 3.2 8 8 8h208c4.8 0 8-3.2 8-8v-24c0-4-3.2-8-8-8z m0 176h-208c-4.8 0-8 3.2-8 8v24c0 4.8 3.2 8 8 8h208c4.8 0 8-3.2 8-8v-24c0-4-3.2-8-8-8z m0 64h-208c-4.8 0-8 3.2-8 8v24c0 4.8 3.2 8 8 8h208c4.8 0 8-3.2 8-8v-24c0-4-3.2-8-8-8z" fill="#C4C8CA" p-id="9896"></path><path d="M868 797.6v216c76-17.6 128-54.4 128-97.6V512.8v187.2c0 42.4-52 80-128 97.6z m-712 4.8c-74.4-13.6-128-48-128-88V537.6v392.8c0 40 53.6 74.4 128 88v-216z m0-239.2c-74.4-12.8-128-47.2-128-88.8V424v266.4c0 40 53.6 74.4 128 88V563.2z m840-103.2c0 41.6-52 78.4-128 96v217.6c76-17.6 128-54.4 128-97.6V424.8v35.2zM156 264h-128v186.4c0 41.6 53.6 76 128 88.8V264z m712-24v292c76-17.6 128-54.4 128-96V240h-128z" fill="#E1E5E7" p-id="9897"></path><path d="M812 119.2C798.4 52.8 684 0 542.4 0 432.8 0 339.2 28.8 296 73.6c-12.8-1.6-26.4-3.2-40.8-3.2-75.2 0-136 32.8-136 68.8 0 7.2 1.6 18.4 6.4 24.8-58.4 16.8-96.8 42.4-96.8 77.6 0 52.8 88 95.2 196.8 95.2h544.8c125.6 0 227.2-48.8 227.2-109.6-1.6-54.4-80.8-98.4-185.6-108z" fill="#F2F1EF" p-id="9898"></path><path d="M508 96c-75.2 0-136 27.2-136 68s60.8 68 136 68 136-30.4 136-68-60.8-68-136-68z m67.2 52.8l-78.4 40.8c-3.2 1.6-8 2.4-12 2.4-4.8 0.8-10.4 0-13.6-1.6l-31.2-16c-5.6-3.2-5.6-8 0-10.4 5.6-3.2 15.2-3.2 20.8 0l23.2 12 71.2-36.8c5.6-3.2 15.2-3.2 20.8 0 4.8 2.4 4.8 7.2-0.8 9.6z" fill="#CECDCB" p-id="9899"></path></svg>